<svg width="800" height="600" viewBox="0 0 800 600" fill="none" xmlns="http://www.w3.org/2000/svg" role="img" aria-label="Ilustração de serviços">
  <defs>
    <linearGradient id="grad" x1="0" y1="0" x2="1" y2="1">
      <stop offset="0%" stop-color="#60A5FA"/>
      <stop offset="100%" stop-color="#6366F1"/>
    </linearGradient>
    <linearGradient id="grad2" x1="0" y1="0" x2="1" y2="1">
      <stop offset="0%" stop-color="#A78BFA"/>
      <stop offset="100%" stop-color="#34D399"/>
    </linearGradient>
    <filter id="blur" x="-20%" y="-20%" width="140%" height="140%">
      <feGaussianBlur in="SourceGraphic" stdDeviation="20"/>
    </filter>
  </defs>
  <rect width="800" height="600" rx="24" fill="#F8FAFC"/>
  <g filter="url(#blur)">
    <circle cx="140" cy="120" r="100" fill="url(#grad)" opacity="0.35"/>
    <circle cx="700" cy="160" r="120" fill="url(#grad2)" opacity="0.25"/>
    <circle cx="620" cy="460" r="160" fill="url(#grad)" opacity="0.18"/>
  </g>
  <g transform="translate(140,120)">
    <rect x="0" y="0" width="520" height="360" rx="20" fill="#FFFFFF" stroke="#E5E7EB"/>
    <rect x="24" y="24" width="200" height="14" rx="7" fill="#E5E7EB"/>
    <rect x="24" y="56" width="472" height="12" rx="6" fill="#EEF2FF"/>
    <rect x="24" y="80" width="320" height="12" rx="6" fill="#EEF2FF"/>
    <rect x="24" y="120" width="472" height="180" rx="12" fill="#F9FAFB" stroke="#EEF2FF"/>
    <g transform="translate(40,144)" fill="#C7D2FE">
      <rect x="0" y="0" width="280" height="12" rx="6"/>
      <rect x="0" y="28" width="220" height="12" rx="6"/>
      <rect x="0" y="56" width="260" height="12" rx="6"/>
      <rect x="0" y="84" width="180" height="12" rx="6"/>
    </g>
    <g transform="translate(380,144)">
      <circle cx="24" cy="24" r="24" fill="#DBEAFE"/>
      <path d="M24 14l6 6-14 14H10v-6L24 14z" fill="#2563EB"/>
    </g>
  </g>
</svg>
